<?xml version="1.0" encoding="UTF-8" standalone="no"?>
<svg width="16" height="16" viewBox="0 0 16 16" version="1.1"
  xmlns="http://www.w3.org/2000/svg"
  xmlns:svg="http://www.w3.org/2000/svg">
  <rect style="fill:none;fill-opacity:1;stroke:#c5c5c5;stroke-width:0.941173;stroke-opacity:1" width="15.058625" height="15.058906" x="0.47068843" y="0.47048488" rx="4.7058201" ry="6.2745438" />
  <path style="display:inline;fill:#c5c5c5;fill-opacity:1;stroke-width:0.0627449" d="M 5.2382812 4.8632812 C 3.778349 4.8632812 2.6035156 6.0380874 2.6035156 7.4980469 L 2.6035156 8.5019531 C 2.6035156 9.9619126 3.778349 11.136719 5.2382812 11.136719 L 10.761719 11.136719 C 12.221651 11.136719 13.396484 9.9619126 13.396484 8.5019531 L 13.396484 7.4980469 C 13.396484 6.0380874 12.221651 4.8632812 10.761719 4.8632812 L 5.2382812 4.8632812 z M 5.0546875 5.9257812 L 7.1269531 7.9960938 L 7.1230469 8 L 7.1269531 8.0039062 L 5.0546875 10.074219 L 4.1679688 9.1875 L 5.3554688 8 L 4.1679688 6.8125 L 5.0546875 5.9257812 z M 8.8789062 7.3105469 L 11.701172 7.3105469 L 11.701172 8.6894531 L 8.8789062 8.6894531 L 8.8789062 7.3105469 z " />
</svg>
