<?xml version="1.0" encoding="UTF-8" standalone="no"?>
<svg width="256" height="256" viewBox="0 0 256 256" version="1.1" xml:space="preserve"
  xmlns="http://www.w3.org/2000/svg"
  xmlns:svg="http://www.w3.org/2000/svg">
  <rect style="fill:none;fill-opacity:1;stroke:#000000;stroke-width:15;stroke-opacity:1" width="240" height="240" x="8" y="8" rx="75" ry="100" />
  <path style="display:block;fill:#000000;fill-opacity:1" d="M 84 78 C 60.732023 78 42 96.732023 42 120 L 42 136 C 42 159.26798 60.732023 178 84 178 L 172 178 C 195.26798 178 214 159.26798 214 136 L 214 120 C 214 96.732023 195.26798 78 172 78 L 84 78 z M 81.070312 94.929688 L 114.07031 127.92969 L 114 128 L 114.07031 128.07031 L 81.070312 161.07031 L 66.929688 146.92969 L 85.859375 128 L 66.929688 109.07031 L 81.070312 94.929688 z M 142 117 L 187 117 L 187 139 L 142 139 L 142 117 z " />
</svg>
